<svg width="15" height="15" viewBox="0 0 15 15" fill="none" xmlns="http://www.w3.org/2000/svg">
<path d="M14.3438 6.00024C14.2266 5.88307 14.0676 5.81725 13.9019 5.81725C13.7362 5.81725 13.5772 5.88307 13.46 6.00024L6.65251 12.8371C6.36233 13.1273 6.01783 13.3576 5.63868 13.5146C5.25952 13.6717 4.85314 13.7526 4.44273 13.7526C3.61388 13.7527 2.81896 13.4235 2.23283 12.8374C1.6467 12.2514 1.31738 11.4565 1.31732 10.6276C1.31726 9.79879 1.64647 9.00387 2.23251 8.41774L8.82564 1.79774C9.17819 1.4508 9.65356 1.25722 10.1482 1.25917C10.6428 1.26113 11.1166 1.45846 11.4664 1.80818C11.8163 2.1579 12.0137 2.63167 12.0158 3.12631C12.0178 3.62094 11.8244 4.09635 11.4775 4.44899L4.88439 11.069C4.76548 11.1829 4.60718 11.2465 4.44251 11.2465C4.27785 11.2465 4.11954 11.1829 4.00064 11.069C3.88347 10.9518 3.81765 10.7928 3.81765 10.6271C3.81765 10.4614 3.88347 10.3024 4.00064 10.1852L9.87064 4.28836C9.98449 4.17049 10.0475 4.01261 10.0461 3.84874C10.0446 3.68486 9.97891 3.52811 9.86303 3.41223C9.74714 3.29635 9.59039 3.23062 9.42651 3.22919C9.26264 3.22777 9.10476 3.29076 8.98689 3.40461L3.11689 9.30149C2.94275 9.4756 2.80461 9.68231 2.71036 9.90982C2.61611 10.1373 2.5676 10.3812 2.5676 10.6274C2.5676 10.8737 2.61611 11.1175 2.71036 11.345C2.80461 11.5725 2.94275 11.7793 3.11689 11.9534C3.47415 12.2943 3.949 12.4845 4.44283 12.4845C4.93665 12.4845 5.4115 12.2943 5.76876 11.9534L12.3613 5.33274C12.935 4.74418 13.2538 3.95327 13.2485 3.13135C13.2432 2.30942 12.9144 1.52266 12.3331 0.941502C11.7519 0.360343 10.9651 0.0315786 10.1432 0.0264286C9.32123 0.0212786 8.53037 0.340157 7.94189 0.913988L1.34876 7.53399C0.528251 8.3545 0.0672912 9.46736 0.0672913 10.6277C0.0672913 11.7881 0.528251 12.901 1.34876 13.7215C2.16928 14.542 3.28213 15.003 4.44251 15.003C5.60289 15.003 6.71575 14.542 7.53626 13.7215L14.3438 6.88649C14.4022 6.82841 14.4485 6.75936 14.4801 6.68331C14.5117 6.60727 14.528 6.52572 14.528 6.44336C14.528 6.36101 14.5117 6.27946 14.4801 6.20341C14.4485 6.12737 14.4022 6.05832 14.3438 6.00024Z" fill="#525252"/>
</svg>
