<svg width="29" height="29" viewBox="0 0 29 29" fill="none" xmlns="http://www.w3.org/2000/svg">
<path d="M1 4.75C1 17.5906 11.4094 28 24.25 28C24.8293 28 25.4037 27.9788 25.9725 27.9371C26.6251 27.8893 26.9514 27.8655 27.2485 27.6945C27.4945 27.5529 27.7277 27.3018 27.851 27.046C28 26.7373 28 26.3771 28 25.657V21.4311C28 20.8254 28 20.5225 27.9003 20.263C27.8124 20.0337 27.6692 19.8295 27.4838 19.6684C27.274 19.486 26.9893 19.3825 26.4202 19.1755L21.61 17.4264C20.9477 17.1856 20.6166 17.0651 20.3025 17.0855C20.0254 17.1035 19.7589 17.1982 19.5324 17.3587C19.2756 17.5406 19.0944 17.8428 18.7318 18.4471L17.5 20.5C13.5252 18.6999 10.3029 15.4734 8.5 11.5L10.5529 10.2682C11.1572 9.90569 11.4593 9.72442 11.6413 9.46759C11.8018 9.24112 11.8965 8.97455 11.9145 8.69755C11.9349 8.3834 11.8144 8.05229 11.5736 7.39007L9.82448 2.57981C9.6175 2.01064 9.51402 1.72604 9.33163 1.51615C9.17052 1.33074 8.96634 1.18773 8.73703 1.09968C8.47744 1 8.17462 1 7.56898 1H3.34301C2.62282 1 2.26271 1 1.95397 1.14888C1.69825 1.27219 1.44721 1.50551 1.30555 1.75154C1.13452 2.0486 1.11062 2.37493 1.06283 3.02759C1.02119 3.59629 1 4.17067 1 4.75Z" stroke="white" stroke-linecap="round" stroke-linejoin="round"/>
</svg>
